<svg width="61" height="16" viewBox="0 0 61 16" fill="none" xmlns="http://www.w3.org/2000/svg">
<path d="M0.76 15C0.626667 15 0.506667 14.9533 0.4 14.86C0.293333 14.7533 0.24 14.6267 0.24 14.48V1.52C0.24 1.37333 0.293333 1.25333 0.4 1.16C0.506667 1.05333 0.626667 0.999999 0.76 0.999999H4.08C4.22667 0.999999 4.35333 1.05333 4.46 1.16C4.56667 1.25333 4.62 1.37333 4.62 1.52V11.44H10.4C10.5467 11.44 10.6733 11.4933 10.78 11.6C10.8867 11.6933 10.94 11.8133 10.94 11.96V14.48C10.94 14.6267 10.8867 14.7533 10.78 14.86C10.6733 14.9533 10.5467 15 10.4 15H0.76ZM20.3503 15.2C19.0703 15.2 17.957 15 17.0103 14.6C16.077 14.2 15.337 13.6 14.7903 12.8C14.257 11.9867 13.9703 10.98 13.9303 9.78C13.917 9.22 13.9103 8.64667 13.9103 8.06C13.9103 7.46 13.917 6.86667 13.9303 6.28C13.9703 5.09333 14.257 4.09333 14.7903 3.28C15.337 2.46667 16.0836 1.85333 17.0303 1.44C17.977 1.01333 19.0836 0.799999 20.3503 0.799999C21.6036 0.799999 22.7036 1.01333 23.6503 1.44C24.597 1.85333 25.3436 2.46667 25.8903 3.28C26.437 4.09333 26.7236 5.09333 26.7503 6.28C26.777 6.86667 26.7903 7.46 26.7903 8.06C26.7903 8.64667 26.777 9.22 26.7503 9.78C26.7103 10.98 26.417 11.9867 25.8703 12.8C25.337 13.6 24.597 14.2 23.6503 14.6C22.717 15 21.617 15.2 20.3503 15.2ZM20.3503 11.8C20.9103 11.8 21.3703 11.6333 21.7303 11.3C22.0903 10.9533 22.277 10.4067 22.2903 9.66C22.317 9.08667 22.3303 8.53333 22.3303 8C22.3303 7.45333 22.317 6.9 22.2903 6.34C22.277 5.84667 22.1836 5.44 22.0103 5.12C21.8503 4.8 21.6236 4.56667 21.3303 4.42C21.0503 4.27333 20.7236 4.2 20.3503 4.2C19.977 4.2 19.6436 4.27333 19.3503 4.42C19.057 4.56667 18.8236 4.8 18.6503 5.12C18.4903 5.44 18.4036 5.84667 18.3903 6.34C18.377 6.9 18.3703 7.45333 18.3703 8C18.3703 8.53333 18.377 9.08667 18.3903 9.66C18.417 10.4067 18.6036 10.9533 18.9503 11.3C19.3103 11.6333 19.777 11.8 20.3503 11.8ZM36.9416 15.2C35.6216 15.2 34.4882 15 33.5416 14.6C32.5949 14.1867 31.8549 13.5733 31.3216 12.76C30.7882 11.9467 30.5016 10.94 30.4616 9.74C30.4482 9.18 30.4416 8.58 30.4416 7.94C30.4416 7.28667 30.4482 6.67333 30.4616 6.1C30.5016 4.94 30.7882 3.96667 31.3216 3.18C31.8682 2.39333 32.6216 1.8 33.5816 1.4C34.5416 0.999999 35.6616 0.799999 36.9416 0.799999C37.9682 0.799999 38.8816 0.919999 39.6816 1.16C40.4816 1.4 41.1616 1.72667 41.7216 2.14C42.2949 2.55333 42.7282 3.02 43.0216 3.54C43.3282 4.04667 43.4882 4.57333 43.5016 5.12C43.5016 5.24 43.4549 5.34667 43.3616 5.44C43.2816 5.52 43.1816 5.56 43.0616 5.56H39.3816C39.2482 5.56 39.1416 5.54 39.0616 5.5C38.9816 5.44667 38.9082 5.38 38.8416 5.3C38.7749 5.16667 38.6682 5.01333 38.5216 4.84C38.3882 4.66667 38.1949 4.52 37.9416 4.4C37.6882 4.26667 37.3549 4.2 36.9416 4.2C36.3149 4.2 35.8282 4.36 35.4816 4.68C35.1349 5 34.9482 5.50667 34.9216 6.2C34.8816 7.32 34.8816 8.46667 34.9216 9.64C34.9482 10.4 35.1416 10.9533 35.5016 11.3C35.8749 11.6333 36.3749 11.8 37.0016 11.8C37.4149 11.8 37.7816 11.7333 38.1016 11.6C38.4349 11.4667 38.6949 11.26 38.8816 10.98C39.0682 10.6867 39.1616 10.3133 39.1616 9.86V9.66H37.7416C37.5949 9.66 37.4682 9.60667 37.3616 9.5C37.2682 9.39333 37.2216 9.27333 37.2216 9.14V7.28C37.2216 7.13333 37.2682 7.01333 37.3616 6.92C37.4682 6.81333 37.5949 6.76 37.7416 6.76H43.0016C43.1482 6.76 43.2749 6.81333 43.3816 6.92C43.4882 7.01333 43.5416 7.13333 43.5416 7.28V9.72C43.5416 10.8933 43.2616 11.8867 42.7016 12.7C42.1416 13.5133 41.3682 14.1333 40.3816 14.56C39.3949 14.9867 38.2482 15.2 36.9416 15.2ZM53.6081 15.2C52.3281 15.2 51.2148 15 50.2681 14.6C49.3348 14.2 48.5948 13.6 48.0481 12.8C47.5148 11.9867 47.2281 10.98 47.1881 9.78C47.1748 9.22 47.1681 8.64667 47.1681 8.06C47.1681 7.46 47.1748 6.86667 47.1881 6.28C47.2281 5.09333 47.5148 4.09333 48.0481 3.28C48.5948 2.46667 49.3415 1.85333 50.2881 1.44C51.2348 1.01333 52.3415 0.799999 53.6081 0.799999C54.8615 0.799999 55.9615 1.01333 56.9081 1.44C57.8548 1.85333 58.6015 2.46667 59.1481 3.28C59.6948 4.09333 59.9815 5.09333 60.0081 6.28C60.0348 6.86667 60.0481 7.46 60.0481 8.06C60.0481 8.64667 60.0348 9.22 60.0081 9.78C59.9681 10.98 59.6748 11.9867 59.1281 12.8C58.5948 13.6 57.8548 14.2 56.9081 14.6C55.9748 15 54.8748 15.2 53.6081 15.2ZM53.6081 11.8C54.1681 11.8 54.6281 11.6333 54.9881 11.3C55.3481 10.9533 55.5348 10.4067 55.5481 9.66C55.5748 9.08667 55.5881 8.53333 55.5881 8C55.5881 7.45333 55.5748 6.9 55.5481 6.34C55.5348 5.84667 55.4415 5.44 55.2681 5.12C55.1081 4.8 54.8815 4.56667 54.5881 4.42C54.3081 4.27333 53.9815 4.2 53.6081 4.2C53.2348 4.2 52.9015 4.27333 52.6081 4.42C52.3148 4.56667 52.0815 4.8 51.9081 5.12C51.7481 5.44 51.6615 5.84667 51.6481 6.34C51.6348 6.9 51.6281 7.45333 51.6281 8C51.6281 8.53333 51.6348 9.08667 51.6481 9.66C51.6748 10.4067 51.8615 10.9533 52.2081 11.3C52.5681 11.6333 53.0348 11.8 53.6081 11.8Z" fill="white"/>
</svg>
