<svg width="400" height="64" viewBox="0 0 400 64" fill="none" xmlns="http://www.w3.org/2000/svg">
<path d="M36.2053 5L54.308 15.8616L36.2053 26.7232L18.1027 15.8616L36.2053 5Z" fill="#006FE6"/>
<path d="M18.1027 37.5848L36.2053 48.4464L18.1027 59.308L0 48.4464L18.1027 37.5848Z" fill="#006FE6"/>
<path d="M18.1027 37.5848V15.8616L0 26.7232L18.1027 37.5848Z" fill="#006FE6"/>
<path d="M36.2053 26.7232V48.4464L54.308 37.5848L36.2053 26.7232Z" fill="#006FE6"/>
<path d="M87.7526 48.0843C84.5846 48.0843 81.9447 47.6468 79.8327 46.7719C77.7509 45.8667 76.182 44.7051 75.126 43.2871C74.1002 41.8389 73.5571 40.3153 73.4968 38.7162C73.4968 38.4446 73.5873 38.2184 73.7683 38.0373C73.9493 37.8563 74.1756 37.7658 74.4472 37.7658H81.643C82.0654 37.7658 82.3972 37.8412 82.6386 37.9921C82.88 38.1128 83.1364 38.2938 83.408 38.5352C83.6795 38.867 83.9963 39.1838 84.3584 39.4855C84.7204 39.7571 85.1881 39.9834 85.7613 40.1644C86.3346 40.3153 86.9983 40.3907 87.7526 40.3907C89.1405 40.3907 90.2116 40.2097 90.9658 39.8476C91.7201 39.4554 92.0972 38.9274 92.0972 38.2636C92.0972 37.7507 91.886 37.3283 91.4636 36.9964C91.0714 36.6646 90.3926 36.3628 89.4271 36.0913C88.4616 35.8198 87.1492 35.5331 85.4898 35.2314C83.1666 34.8392 81.1602 34.266 79.4706 33.5117C77.7811 32.7272 76.4837 31.6863 75.5786 30.389C74.7036 29.0614 74.2661 27.4322 74.2661 25.5012C74.2661 23.5401 74.8092 21.8053 75.8954 20.2967C77.0117 18.7882 78.5504 17.6115 80.5115 16.7667C82.5028 15.9219 84.8109 15.4995 87.4358 15.4995C89.6081 15.4995 91.524 15.7862 93.1834 16.3594C94.873 16.9327 96.291 17.6869 97.4375 18.6222C98.584 19.5274 99.459 20.5079 100.062 21.5639C100.666 22.6199 100.983 23.6306 101.013 24.5961C101.013 24.8677 100.907 25.109 100.696 25.3202C100.515 25.5012 100.304 25.5918 100.062 25.5918H92.5045C92.1425 25.5918 91.8257 25.5314 91.5542 25.4107C91.3128 25.2901 91.0865 25.0939 90.8753 24.8224C90.7245 24.4 90.3473 24.0229 89.7439 23.691C89.1405 23.3591 88.3711 23.1932 87.4358 23.1932C86.41 23.1932 85.6255 23.3742 85.0825 23.7362C84.5394 24.0681 84.2678 24.5659 84.2678 25.2297C84.2678 25.6823 84.4338 26.0745 84.7657 26.4064C85.0976 26.7383 85.6859 27.04 86.5307 27.3115C87.3755 27.5529 88.5521 27.8244 90.0607 28.1261C92.9269 28.5485 95.235 29.1519 96.985 29.9364C98.765 30.7208 100.062 31.7467 100.877 33.0139C101.692 34.281 102.099 35.865 102.099 37.7658C102.099 39.9079 101.48 41.7484 100.243 43.2871C99.0064 44.8258 97.3017 46.0176 95.1294 46.8624C92.9873 47.677 90.5283 48.0843 87.7526 48.0843Z" fill="#006FE6"/>
<path d="M108.511 47.6317C108.179 47.6317 107.893 47.5261 107.651 47.3149C107.44 47.0736 107.335 46.787 107.335 46.4551V25.275C107.335 24.9431 107.44 24.6715 107.651 24.4603C107.893 24.219 108.179 24.0983 108.511 24.0983H115.209C115.541 24.0983 115.828 24.219 116.069 24.4603C116.31 24.6715 116.431 24.9431 116.431 25.275V46.4551C116.431 46.787 116.31 47.0736 116.069 47.3149C115.828 47.5261 115.541 47.6317 115.209 47.6317H108.511ZM108.602 21.1566C108.27 21.1566 107.983 21.051 107.742 20.8398C107.531 20.5984 107.425 20.3118 107.425 19.9799V15.228C107.425 14.8961 107.531 14.6095 107.742 14.3681C107.983 14.1268 108.27 14.0061 108.602 14.0061H115.119C115.451 14.0061 115.737 14.1268 115.979 14.3681C116.22 14.6095 116.341 14.8961 116.341 15.228V19.9799C116.341 20.3118 116.22 20.5984 115.979 20.8398C115.737 21.051 115.451 21.1566 115.119 21.1566H108.602Z" fill="#006FE6"/>
<path d="M124.066 47.6317C123.735 47.6317 123.448 47.5261 123.207 47.3149C122.995 47.0736 122.89 46.787 122.89 46.4551V16.6762C122.89 16.3443 122.995 16.0728 123.207 15.8616C123.448 15.6202 123.735 15.4995 124.066 15.4995H130.81C131.111 15.4995 131.383 15.6202 131.624 15.8616C131.866 16.0728 131.986 16.3443 131.986 16.6762V46.4551C131.986 46.787 131.866 47.0736 131.624 47.3149C131.383 47.5261 131.111 47.6317 130.81 47.6317H124.066Z" fill="#006FE6"/>
<path d="M146.997 47.6317C146.515 47.6317 146.168 47.5111 145.957 47.2697C145.775 47.0283 145.61 46.7719 145.459 46.5003L136.815 25.5012C136.785 25.3806 136.769 25.2599 136.769 25.1392C136.769 24.8677 136.875 24.6263 137.086 24.4151C137.297 24.2039 137.539 24.0983 137.81 24.0983H144.237C144.659 24.0983 144.976 24.219 145.187 24.4603C145.398 24.6715 145.549 24.8827 145.64 25.0939L149.984 37.3585L154.374 25.0939C154.465 24.8827 154.616 24.6715 154.827 24.4603C155.038 24.219 155.355 24.0983 155.777 24.0983H162.158C162.46 24.0983 162.701 24.2039 162.882 24.4151C163.094 24.6263 163.199 24.8677 163.199 25.1392C163.199 25.2599 163.184 25.3806 163.154 25.5012L154.555 46.5003C154.435 46.7719 154.254 47.0283 154.012 47.2697C153.801 47.5111 153.469 47.6317 153.017 47.6317H146.997Z" fill="#006FE6"/>
<path d="M178.667 48.0843C174.895 48.0843 171.893 47.1188 169.661 45.1879C167.458 43.2268 166.327 40.2398 166.266 36.2271C166.266 36.1064 166.266 35.9555 166.266 35.7745C166.266 35.5633 166.266 35.4125 166.266 35.3219C166.357 32.8177 166.9 30.7058 167.896 28.986C168.922 27.2361 170.34 25.9086 172.15 25.0034C173.99 24.0983 176.148 23.6457 178.622 23.6457C181.397 23.6457 183.69 24.2039 185.501 25.3202C187.341 26.4064 188.714 27.8697 189.619 29.7101C190.524 31.5204 190.977 33.5569 190.977 35.8198V37.0869C190.977 37.3887 190.856 37.6602 190.615 37.9016C190.373 38.1429 190.087 38.2636 189.755 38.2636H175.816C175.816 38.2636 175.816 38.2938 175.816 38.3541C175.816 38.4145 175.816 38.4748 175.816 38.5352C175.816 39.2593 175.906 39.9079 176.087 40.4812C176.298 41.0243 176.615 41.4618 177.038 41.7936C177.46 42.0953 177.973 42.2462 178.576 42.2462C178.969 42.2462 179.3 42.1859 179.572 42.0652C179.843 41.9445 180.07 41.7936 180.251 41.6126C180.462 41.4014 180.643 41.2053 180.794 41.0243C181.065 40.7527 181.292 40.5868 181.473 40.5265C181.654 40.4359 181.925 40.3907 182.287 40.3907H189.393C189.664 40.3907 189.89 40.4812 190.071 40.6622C190.283 40.8432 190.373 41.0695 190.343 41.3411C190.313 41.8842 190.056 42.5479 189.574 43.3324C189.091 44.0866 188.367 44.8258 187.401 45.5499C186.466 46.274 185.259 46.8775 183.781 47.3602C182.302 47.8429 180.598 48.0843 178.667 48.0843ZM175.816 33.1949H181.427V33.1044C181.427 32.2897 181.322 31.5958 181.111 31.0226C180.899 30.4493 180.583 30.0269 180.16 29.7554C179.738 29.4537 179.225 29.3028 178.622 29.3028C178.018 29.3028 177.505 29.4537 177.083 29.7554C176.66 30.0269 176.344 30.4493 176.132 31.0226C175.921 31.5958 175.816 32.2897 175.816 33.1044V33.1949Z" fill="#006FE6"/>
<path d="M197.692 47.6317C197.36 47.6317 197.073 47.5261 196.832 47.3149C196.62 47.0736 196.515 46.787 196.515 46.4551V25.275C196.515 24.9431 196.62 24.6715 196.832 24.4603C197.073 24.219 197.36 24.0983 197.692 24.0983H204.254C204.586 24.0983 204.857 24.219 205.068 24.4603C205.31 24.6715 205.43 24.9431 205.43 25.275V26.9495C206.336 26.0745 207.361 25.3806 208.508 24.8677C209.685 24.3547 210.967 24.0983 212.355 24.0983H214.391C214.723 24.0983 215.01 24.219 215.251 24.4603C215.493 24.6715 215.613 24.9431 215.613 25.275V31.1131C215.613 31.445 215.493 31.7316 215.251 31.9729C215.01 32.2143 214.723 32.335 214.391 32.335H209.323C208.236 32.335 207.407 32.6216 206.833 33.1949C206.26 33.738 205.974 34.5526 205.974 35.6387V46.4551C205.974 46.787 205.853 47.0736 205.611 47.3149C205.4 47.5261 205.129 47.6317 204.797 47.6317H197.692Z" fill="#006FE6"/>
<path d="M243.31 48.0843C240.142 48.0843 237.502 47.6468 235.39 46.7719C233.308 45.8667 231.739 44.7051 230.683 43.2871C229.657 41.8389 229.114 40.3153 229.054 38.7162C229.054 38.4446 229.145 38.2184 229.326 38.0373C229.507 37.8563 229.733 37.7658 230.004 37.7658H237.2C237.623 37.7658 237.955 37.8412 238.196 37.9921C238.437 38.1128 238.694 38.2938 238.965 38.5352C239.237 38.867 239.554 39.1838 239.916 39.4855C240.278 39.7571 240.745 39.9834 241.319 40.1644C241.892 40.3153 242.556 40.3907 243.31 40.3907C244.698 40.3907 245.769 40.2097 246.523 39.8476C247.277 39.4554 247.655 38.9274 247.655 38.2636C247.655 37.7507 247.443 37.3283 247.021 36.9964C246.629 36.6646 245.95 36.3628 244.984 36.0913C244.019 35.8198 242.706 35.5331 241.047 35.2314C238.724 34.8392 236.718 34.266 235.028 33.5117C233.338 32.7272 232.041 31.6863 231.136 30.389C230.261 29.0614 229.823 27.4322 229.823 25.5012C229.823 23.5401 230.366 21.8053 231.453 20.2967C232.569 18.7882 234.108 17.6115 236.069 16.7667C238.06 15.9219 240.368 15.4995 242.993 15.4995C245.165 15.4995 247.081 15.7862 248.741 16.3594C250.43 16.9327 251.848 17.6869 252.995 18.6222C254.141 19.5274 255.016 20.5079 255.62 21.5639C256.223 22.6199 256.54 23.6306 256.57 24.5961C256.57 24.8677 256.464 25.109 256.253 25.3202C256.072 25.5012 255.861 25.5918 255.62 25.5918H248.062C247.7 25.5918 247.383 25.5314 247.111 25.4107C246.87 25.2901 246.644 25.0939 246.433 24.8224C246.282 24.4 245.905 24.0229 245.301 23.691C244.698 23.3591 243.928 23.1932 242.993 23.1932C241.967 23.1932 241.183 23.3742 240.64 23.7362C240.097 24.0681 239.825 24.5659 239.825 25.2297C239.825 25.6823 239.991 26.0745 240.323 26.4064C240.655 26.7383 241.243 27.04 242.088 27.3115C242.933 27.5529 244.109 27.8244 245.618 28.1261C248.484 28.5485 250.792 29.1519 252.542 29.9364C254.322 30.7208 255.62 31.7467 256.434 33.0139C257.249 34.281 257.656 35.865 257.656 37.7658C257.656 39.9079 257.038 41.7484 255.801 43.2871C254.564 44.8258 252.859 46.0176 250.687 46.8624C248.545 47.677 246.086 48.0843 243.31 48.0843Z" fill="#006FE6"/>
<path d="M274.297 48.0843C272.034 48.0843 269.997 47.6921 268.187 46.9076C266.407 46.093 264.974 44.9163 263.888 43.3776C262.832 41.8087 262.243 39.923 262.122 37.7205C262.092 37.2378 262.077 36.6344 262.077 35.9103C262.077 35.1862 262.092 34.5677 262.122 34.0548C262.243 31.8221 262.832 29.9364 263.888 28.3977C264.944 26.8288 266.377 25.6521 268.187 24.8677C269.997 24.053 272.034 23.6457 274.297 23.6457C276.529 23.6457 278.43 23.9625 279.999 24.5961C281.598 25.2297 282.88 26.0142 283.846 26.9495C284.841 27.8848 285.581 28.8201 286.063 29.7554C286.546 30.6907 286.802 31.4751 286.833 32.1087C286.863 32.4406 286.742 32.7272 286.471 32.9686C286.229 33.21 285.958 33.3306 285.656 33.3306H278.37C278.038 33.3306 277.781 33.2552 277.6 33.1044C277.419 32.9233 277.253 32.682 277.102 32.3803C276.801 31.7165 276.454 31.2338 276.062 30.932C275.669 30.6002 275.141 30.4342 274.478 30.4342C273.542 30.4342 272.848 30.7661 272.396 31.4299C271.943 32.0635 271.702 33.0139 271.672 34.281C271.611 35.5482 271.611 36.6193 271.672 37.4943C271.732 38.7916 271.973 39.7571 272.396 40.3907C272.848 40.9941 273.542 41.2958 274.478 41.2958C275.232 41.2958 275.79 41.145 276.152 40.8432C276.514 40.5114 276.831 40.0135 277.102 39.3498C277.223 39.0481 277.374 38.8218 277.555 38.6709C277.766 38.4899 278.038 38.3994 278.37 38.3994H285.656C285.958 38.3994 286.229 38.5201 286.471 38.7614C286.742 39.0028 286.863 39.2894 286.833 39.6213C286.802 40.0437 286.637 40.617 286.335 41.3411C286.063 42.035 285.626 42.7742 285.022 43.5586C284.449 44.3129 283.68 45.037 282.714 45.731C281.749 46.4249 280.572 46.9981 279.184 47.4507C277.796 47.8731 276.167 48.0843 274.297 48.0843Z" fill="#006FE6"/>
<path d="M293.324 47.6317C292.993 47.6317 292.706 47.5261 292.465 47.3149C292.253 47.0736 292.148 46.787 292.148 46.4551V25.275C292.148 24.9431 292.253 24.6715 292.465 24.4603C292.706 24.219 292.993 24.0983 293.324 24.0983H299.887C300.219 24.0983 300.49 24.219 300.701 24.4603C300.943 24.6715 301.063 24.9431 301.063 25.275V26.9495C301.968 26.0745 302.994 25.3806 304.141 24.8677C305.317 24.3547 306.6 24.0983 307.988 24.0983H310.024C310.356 24.0983 310.643 24.219 310.884 24.4603C311.125 24.6715 311.246 24.9431 311.246 25.275V31.1131C311.246 31.445 311.125 31.7316 310.884 31.9729C310.643 32.2143 310.356 32.335 310.024 32.335H304.955C303.869 32.335 303.04 32.6216 302.466 33.1949C301.893 33.738 301.606 34.5526 301.606 35.6387V46.4551C301.606 46.787 301.486 47.0736 301.244 47.3149C301.033 47.5261 300.762 47.6317 300.43 47.6317H293.324Z" fill="#006FE6"/>
<path d="M327.42 48.0843C323.648 48.0843 320.646 47.1188 318.414 45.1879C316.211 43.2268 315.08 40.2398 315.019 36.2271C315.019 36.1064 315.019 35.9555 315.019 35.7745C315.019 35.5633 315.019 35.4125 315.019 35.3219C315.11 32.8177 315.653 30.7058 316.649 28.986C317.674 27.2361 319.092 25.9086 320.903 25.0034C322.743 24.0983 324.9 23.6457 327.374 23.6457C330.15 23.6457 332.443 24.2039 334.253 25.3202C336.094 26.4064 337.467 27.8697 338.372 29.7101C339.277 31.5204 339.729 33.5569 339.729 35.8198V37.0869C339.729 37.3887 339.609 37.6602 339.367 37.9016C339.126 38.1429 338.839 38.2636 338.508 38.2636H324.569C324.569 38.2636 324.569 38.2938 324.569 38.3541C324.569 38.4145 324.569 38.4748 324.569 38.5352C324.569 39.2593 324.659 39.9079 324.84 40.4812C325.051 41.0243 325.368 41.4618 325.79 41.7936C326.213 42.0953 326.726 42.2462 327.329 42.2462C327.721 42.2462 328.053 42.1859 328.325 42.0652C328.596 41.9445 328.823 41.7936 329.004 41.6126C329.215 41.4014 329.396 41.2053 329.547 41.0243C329.818 40.7527 330.045 40.5868 330.226 40.5265C330.407 40.4359 330.678 40.3907 331.04 40.3907H338.146C338.417 40.3907 338.643 40.4812 338.824 40.6622C339.036 40.8432 339.126 41.0695 339.096 41.3411C339.066 41.8842 338.809 42.5479 338.327 43.3324C337.844 44.0866 337.12 44.8258 336.154 45.5499C335.219 46.274 334.012 46.8775 332.534 47.3602C331.055 47.8429 329.351 48.0843 327.42 48.0843ZM324.569 33.1949H330.18V33.1044C330.18 32.2897 330.075 31.5958 329.864 31.0226C329.652 30.4493 329.336 30.0269 328.913 29.7554C328.491 29.4537 327.978 29.3028 327.374 29.3028C326.771 29.3028 326.258 29.4537 325.836 29.7554C325.413 30.0269 325.097 30.4493 324.885 31.0226C324.674 31.5958 324.569 32.2897 324.569 33.1044V33.1949Z" fill="#006FE6"/>
<path d="M356.808 48.0843C353.037 48.0843 350.035 47.1188 347.802 45.1879C345.6 43.2268 344.468 40.2398 344.408 36.2271C344.408 36.1064 344.408 35.9555 344.408 35.7745C344.408 35.5633 344.408 35.4125 344.408 35.3219C344.498 32.8177 345.041 30.7058 346.037 28.986C347.063 27.2361 348.481 25.9086 350.291 25.0034C352.132 24.0983 354.289 23.6457 356.763 23.6457C359.539 23.6457 361.832 24.2039 363.642 25.3202C365.482 26.4064 366.855 27.8697 367.76 29.7101C368.665 31.5204 369.118 33.5569 369.118 35.8198V37.0869C369.118 37.3887 368.997 37.6602 368.756 37.9016C368.515 38.1429 368.228 38.2636 367.896 38.2636H353.957C353.957 38.2636 353.957 38.2938 353.957 38.3541C353.957 38.4145 353.957 38.4748 353.957 38.5352C353.957 39.2593 354.048 39.9079 354.229 40.4812C354.44 41.0243 354.757 41.4618 355.179 41.7936C355.601 42.0953 356.114 42.2462 356.718 42.2462C357.11 42.2462 357.442 42.1859 357.713 42.0652C357.985 41.9445 358.211 41.7936 358.392 41.6126C358.603 41.4014 358.784 41.2053 358.935 41.0243C359.207 40.7527 359.433 40.5868 359.614 40.5265C359.795 40.4359 360.067 40.3907 360.429 40.3907H367.534C367.806 40.3907 368.032 40.4812 368.213 40.6622C368.424 40.8432 368.515 41.0695 368.484 41.3411C368.454 41.8842 368.198 42.5479 367.715 43.3324C367.232 44.0866 366.508 44.8258 365.543 45.5499C364.607 46.274 363.401 46.8775 361.922 47.3602C360.444 47.8429 358.739 48.0843 356.808 48.0843ZM353.957 33.1949H359.569V33.1044C359.569 32.2897 359.463 31.5958 359.252 31.0226C359.041 30.4493 358.724 30.0269 358.302 29.7554C357.879 29.4537 357.366 29.3028 356.763 29.3028C356.16 29.3028 355.647 29.4537 355.224 29.7554C354.802 30.0269 354.485 30.4493 354.274 31.0226C354.063 31.5958 353.957 32.2897 353.957 33.1044V33.1949Z" fill="#006FE6"/>
<path d="M375.833 47.6317C375.501 47.6317 375.214 47.5261 374.973 47.3149C374.762 47.0736 374.656 46.787 374.656 46.4551V25.275C374.656 24.9431 374.762 24.6715 374.973 24.4603C375.214 24.219 375.501 24.0983 375.833 24.0983H382.395C382.727 24.0983 382.999 24.219 383.21 24.4603C383.451 24.6715 383.572 24.9431 383.572 25.275V26.9042C384.356 25.9991 385.397 25.2297 386.695 24.5961C387.992 23.9625 389.47 23.6457 391.13 23.6457C392.759 23.6457 394.237 24.0229 395.565 24.7771C396.892 25.5314 397.963 26.6628 398.778 28.1714C399.593 29.6799 400 31.5807 400 33.8737V46.4551C400 46.787 399.879 47.0736 399.638 47.3149C399.397 47.5261 399.11 47.6317 398.778 47.6317H391.628C391.296 47.6317 391.009 47.5261 390.768 47.3149C390.556 47.0736 390.451 46.787 390.451 46.4551V34.1905C390.451 33.0742 390.179 32.2143 389.636 31.6109C389.093 31.0075 388.324 30.7058 387.328 30.7058C386.333 30.7058 385.548 31.0075 384.975 31.6109C384.402 32.2143 384.115 33.0742 384.115 34.1905V46.4551C384.115 46.787 383.994 47.0736 383.753 47.3149C383.542 47.5261 383.27 47.6317 382.938 47.6317H375.833Z" fill="#006FE6"/>
</svg>
