<svg xmlns="http://www.w3.org/2000/svg" viewBox="0 0 240 40"><defs><style>.cls-1{fill:none;}.cls-2{fill:#3a6db5;}</style></defs><g id="Layer_2" data-name="Layer 2"><g id="Layer_1-2" data-name="Layer 1"><rect class="cls-1" width="240" height="40"/><path class="cls-2" d="M139.46,8.36l0,.06h.06Z"/><rect class="cls-2" x="80.1" y="12.36" width="3.3" height="15.47"/><path class="cls-2" d="M126.73,28.55l-.53.56a10.48,10.48,0,0,1-4,2.64,13.6,13.6,0,0,1-4.89.87,14.06,14.06,0,0,1-5.11-.93A12.6,12.6,0,0,1,108.11,29a12.25,12.25,0,0,1-2.71-4,12.8,12.8,0,0,1-1-5,12.81,12.81,0,0,1,1-5,12,12,0,0,1,2.73-4,12.53,12.53,0,0,1,4.1-2.65,13.8,13.8,0,0,1,5.1-.94,14,14,0,0,1,4.89.85,10.44,10.44,0,0,1,4,2.64l.51.55-2.15,2.22-.57-.56a8.3,8.3,0,0,0-3-1.94,10.93,10.93,0,0,0-7.42.11,9.24,9.24,0,0,0-3.07,2h0a8.92,8.92,0,0,0-2,3,10.18,10.18,0,0,0,0,7.52,9.09,9.09,0,0,0,5.09,5,10.84,10.84,0,0,0,7.43.1,8.2,8.2,0,0,0,3-2l.57-.58Z"/><rect class="cls-2" x="60.78" y="18.35" width="15.49" height="3.1"/><path class="cls-2" d="M139.46,8.36l0,.06h.06Z"/><path class="cls-2" d="M168.83,24l.18-.08a8.19,8.19,0,0,0,3.58-3,8.4,8.4,0,0,0,1.26-4.62,8.51,8.51,0,0,0-1.26-4.68,8,8,0,0,0-3.58-3,13.27,13.27,0,0,0-5.35-1h-4.28v3.13h4.28a7.9,7.9,0,0,1,5.19,1.46,5,5,0,0,1,1.67,4.07,5,5,0,0,1-1.67,4.06,7.84,7.84,0,0,1-5.19,1.47h-5.87V7.62H154.5v21.9h-3.58L140.85,7.62h-2.72L126.66,32.54h3.59l3-6.56h12.5l3,6.56h9.08V24.91h5.87a16.71,16.71,0,0,0,1.86-.11l5.55,7.74H175ZM139.46,8.36l0,.06h-.06ZM134.6,23l4.87-10.73L144.35,23Z"/><path class="cls-2" d="M103.32,20.09a12.5,12.5,0,0,1-1.66,6.44A11.81,11.81,0,0,1,97,31a14.44,14.44,0,0,1-6.88,1.6h-10V29.42H90a11.28,11.28,0,0,0,5.36-1.2,8.57,8.57,0,0,0,3.44-3.28A9.4,9.4,0,0,0,100,20.09a9.39,9.39,0,0,0-1.23-4.84A8.54,8.54,0,0,0,95.35,12,11.18,11.18,0,0,0,90,10.76H80.1V7.64h10A14.35,14.35,0,0,1,97,9.23a11.74,11.74,0,0,1,4.65,4.43A12.47,12.47,0,0,1,103.32,20.09Z"/><path class="cls-2" d="M196,16.28a8.38,8.38,0,0,1-1.26,4.63,8,8,0,0,1-3.57,3,13.22,13.22,0,0,1-5.36,1H180v7.63h-3.29V7.62H180V21.78h5.87A8,8,0,0,0,191,20.32a5,5,0,0,0,1.66-4A5,5,0,0,0,191,12.21a8,8,0,0,0-5.21-1.46h-4.27V7.62h4.27a13.25,13.25,0,0,1,5.36,1,8,8,0,0,1,3.57,3A8.44,8.44,0,0,1,196,16.28Z"/><rect class="cls-2" x="197.18" y="18.35" width="15.49" height="3.1"/><rect class="cls-2" x="60.78" y="7.62" width="15.49" height="3.13"/><path class="cls-2" d="M77,29.21v3.53H55.56L50,25a15.12,15.12,0,0,1-1.77.1H42.57v7.63h-3.7V12.14h3.7v9.47h5.67a7.73,7.73,0,0,0,5.07-1.42,4.85,4.85,0,0,0,1.59-3.91,4.87,4.87,0,0,0-1.59-3.92A7.8,7.8,0,0,0,48.24,11H38.87V7.42h9.37a13.37,13.37,0,0,1,5.44,1,8.23,8.23,0,0,1,3.66,3.05,8.64,8.64,0,0,1,1.29,4.79A8.55,8.55,0,0,1,57.34,21a8.37,8.37,0,0,1-3.62,3l3.7,5.15Z"/><rect class="cls-2" x="197.18" y="29.41" width="15.99" height="3.13"/><polygon class="cls-2" points="233.91 7.62 233.91 10.75 225.53 10.75 225.53 32.54 222.22 32.54 222.22 10.75 197.18 10.75 197.18 7.62 233.91 7.62"/><path class="cls-2" d="M25.23,20V12h0L13.89,5.4l0,0v0l-6.95,4,0,0,7,4-6.93,4h0V30.57l7,4h0v-8l6.93,4h0L32.19,24h0V16ZM13.9,13.49,25.17,20,13.9,26.51Z"/></g></g></svg>