<?xml version="1.0" standalone="no"?>
<!DOCTYPE svg PUBLIC "-//W3C//DTD SVG 20010904//EN"
 "http://www.w3.org/TR/2001/REC-SVG-20010904/DTD/svg10.dtd">
<svg version="1.0" xmlns="http://www.w3.org/2000/svg"
 width="300.000000pt" height="300.000000pt" viewBox="0 0 300.000000 300.000000"
 preserveAspectRatio="xMidYMid meet">
<metadata>
Created by potrace 1.14, written by Peter Selinger 2001-2017
</metadata>
<g transform="translate(0.000000,300.000000) scale(0.100000,-0.100000)"
fill="#000000" stroke="none">
<path d="M675 2724 c-154 -90 -299 -173 -322 -186 -24 -12 -43 -24 -43 -27 0
-8 67 -49 255 -156 22 -12 96 -55 165 -95 69 -40 146 -84 173 -99 26 -14 47
-29 47 -32 0 -4 -80 -53 -177 -109 -98 -57 -189 -110 -203 -119 -25 -16 -35
-21 -105 -60 -22 -12 -67 -39 -100 -59 l-60 -37 -1 -617 c-1 -339 1 -620 5
-625 5 -8 251 -153 386 -228 28 -15 98 -56 158 -91 59 -35 109 -64 110 -64 2
0 3 167 3 371 -1 204 1 374 4 378 3 4 151 -77 329 -180 l324 -187 31 17 c17
10 180 104 361 208 182 105 346 200 365 211 19 11 99 56 178 102 l142 82 0
385 0 385 -32 -20 c-50 -31 -381 -222 -383 -222 -1 0 -56 -31 -121 -70 l-119
-70 -5 381 -5 381 -390 225 c-214 124 -451 260 -525 304 -74 43 -142 80 -150
83 -8 2 -141 -69 -295 -160z m392 -660 c54 -31 198 -115 321 -186 123 -71 249
-143 280 -160 31 -17 64 -37 73 -44 8 -8 18 -14 22 -14 4 0 44 -22 89 -49 46
-27 103 -60 128 -74 25 -14 44 -28 43 -33 -1 -4 -26 -21 -56 -38 -67 -38 -337
-194 -357 -207 -59 -35 -553 -319 -556 -319 -3 0 -22 -11 -42 -25 -20 -14 -39
-25 -42 -25 -3 0 -5 277 -5 615 0 338 1 615 2 615 1 0 46 -25 100 -56z"/>
</g>
</svg>
