<?xml version="1.0" standalone="no"?>
<!DOCTYPE svg PUBLIC "-//W3C//DTD SVG 20010904//EN"
 "http://www.w3.org/TR/2001/REC-SVG-20010904/DTD/svg10.dtd">
<svg version="1.0" xmlns="http://www.w3.org/2000/svg"
 width="300.000000pt" height="300.000000pt" viewBox="0 0 300.000000 300.000000"
 preserveAspectRatio="xMidYMid meet">
<metadata>
Created by potrace 1.14, written by Peter Selinger 2001-2017
</metadata>
<g transform="translate(0.000000,300.000000) scale(0.100000,-0.100000)"
fill="#000000" stroke="none">
<path d="M1589 2554 c-178 -106 -331 -198 -339 -203 -8 -6 -43 -26 -77 -46
-34 -19 -70 -43 -79 -53 -10 -9 -20 -16 -23 -15 -3 0 -89 -49 -191 -110 -102
-60 -198 -118 -215 -127 -16 -10 -66 -40 -110 -67 -44 -27 -87 -52 -95 -56 -8
-4 -55 -32 -104 -62 -49 -30 -93 -55 -98 -55 -15 0 1 -18 30 -33 15 -8 108
-63 207 -124 99 -60 187 -112 195 -116 8 -4 47 -27 85 -52 39 -25 82 -50 98
-56 15 -6 27 -15 27 -19 0 -5 10 -12 21 -15 12 -4 49 -25 82 -46 33 -22 65
-39 71 -39 8 0 11 140 11 486 -1 267 3 487 7 490 7 4 37 -13 163 -89 10 -7 37
-23 60 -37 74 -45 100 -60 143 -82 23 -12 42 -26 42 -30 0 -4 4 -8 9 -8 4 0
91 -50 192 -111 101 -61 191 -115 200 -120 12 -6 119 53 425 237 225 135 410
249 412 254 2 5 -14 18 -35 30 -21 11 -51 29 -68 39 -16 10 -140 84 -275 164
-135 81 -249 150 -255 155 -5 4 -37 23 -70 41 -33 18 -67 39 -75 46 -8 6 -22
14 -31 18 -10 3 -141 -70 -340 -189z"/>
<path d="M1918 1742 c-3 -6 -2 -966 1 -983 1 -3 73 37 161 90 88 53 168 101
178 106 142 82 482 290 482 295 0 6 -167 110 -265 164 -11 6 -45 27 -75 46
-30 20 -66 41 -80 48 -14 6 -76 43 -139 82 -62 38 -118 70 -122 70 -5 0 -9 5
-9 10 0 6 -4 10 -10 10 -5 0 -34 16 -64 35 -30 19 -56 32 -58 27z"/>
<path d="M670 1004 c-223 -135 -406 -248 -408 -252 -2 -7 336 -217 405 -251
15 -8 30 -17 33 -21 3 -4 19 -13 35 -22 17 -8 101 -59 189 -111 87 -53 161
-95 165 -93 3 2 97 58 208 125 225 135 234 140 325 194 34 20 79 47 99 60 20
12 71 42 113 66 42 25 76 48 76 51 0 4 -12 13 -27 21 -16 8 -30 17 -33 20 -3
4 -25 17 -49 30 -24 13 -55 30 -70 38 -14 8 -32 20 -39 28 -7 7 -18 13 -23 13
-6 0 -30 14 -54 30 -24 17 -48 30 -53 30 -6 0 -12 3 -14 8 -1 4 -16 14 -31 22
-15 8 -119 70 -231 138 -112 67 -205 122 -207 121 -2 -1 -186 -111 -409 -245z"/>
</g>
</svg>
