<?xml version="1.0" standalone="no"?>
<!DOCTYPE svg PUBLIC "-//W3C//DTD SVG 20010904//EN"
 "http://www.w3.org/TR/2001/REC-SVG-20010904/DTD/svg10.dtd">
<svg version="1.0" xmlns="http://www.w3.org/2000/svg"
 width="300.000000pt" height="300.000000pt" viewBox="0 0 300.000000 300.000000"
 preserveAspectRatio="xMidYMid meet">
<metadata>
Created by potrace 1.14, written by Peter Selinger 2001-2017
</metadata>
<g transform="translate(0.000000,300.000000) scale(0.100000,-0.100000)"
fill="#000000" stroke="none">
<path d="M1350 2994 c-14 -2 -68 -12 -120 -20 -135 -23 -283 -74 -419 -144
-399 -207 -685 -584 -782 -1032 -29 -136 -36 -355 -15 -494 52 -353 188 -624
432 -867 213 -209 461 -343 761 -409 133 -29 423 -32 558 -5 149 29 280 75
413 142 407 207 695 584 793 1037 29 136 36 355 15 494 -52 353 -188 624 -432
867 -211 208 -462 344 -756 408 -90 19 -384 35 -448 23z m363 -965 c173 -47
295 -181 297 -326 0 -54 -3 -55 -180 -51 l-135 3 -25 49 c-36 71 -67 91 -145
91 -75 0 -113 -22 -132 -76 -16 -46 -16 -362 0 -408 19 -54 57 -76 132 -76 78
0 109 20 145 91 l25 49 155 0 155 0 -1 -60 c-2 -148 -121 -272 -309 -320 -70
-18 -250 -20 -327 -4 -174 37 -291 157 -318 329 -13 84 -13 307 0 390 26 162
127 272 295 321 90 26 266 25 368 -2z"/>
</g>
</svg>
