<svg width="100" height="63" viewBox="0 0 100 63" fill="none" xmlns="http://www.w3.org/2000/svg">
<g clip-path="url(#clip0_1989_3394)">
<mask id="mask0_1989_3394" style="mask-type:luminance" maskUnits="userSpaceOnUse" x="0" y="0" width="100" height="63">
<path d="M100 0H0V62.5H100V0Z" fill="white"/>
</mask>
<g mask="url(#mask0_1989_3394)">
<path d="M50 62.5C77.6142 62.5 100 57.7225 100 51.8293C100 45.936 77.6142 41.1585 50 41.1585C22.3858 41.1585 0 45.936 0 51.8293C0 57.7225 22.3858 62.5 50 62.5Z" fill="#D1D5DB" fill-opacity="0.1"/>
<path d="M85.9375 20.9756L70.0844 3.44207C69.3234 2.24694 68.2125 1.52438 67.0422 1.52438H32.9578C31.7875 1.52438 30.6766 2.24694 29.9156 3.44054L14.0625 20.9771V35.061H85.9375V20.9756Z" stroke="#59678B" stroke-opacity="0.15"/>
<path d="M65.0203 25.8094C65.0203 23.3628 66.5734 21.343 68.5 21.3415H85.9375V48.9893C85.9375 52.2256 83.875 54.878 81.3281 54.878H18.6719C16.125 54.878 14.0625 52.2241 14.0625 48.9893V21.3415H31.5C33.4266 21.3415 34.9797 23.3582 34.9797 25.8049V25.8384C34.9797 28.2851 36.55 30.2607 38.475 30.2607H61.525C63.45 30.2607 65.0203 28.2668 65.0203 25.8201V25.8094Z" fill="#59678B" fill-opacity="0.2"/>
</g>
</g>
<defs>
<clipPath id="clip0_1989_3394">
<rect width="100" height="63" fill="white"/>
</clipPath>
</defs>
</svg>
