<svg width="786" height="645" viewBox="0 0 786 645" fill="none" xmlns="http://www.w3.org/2000/svg">
<g id="No Result Icon">
<g id="circle">
<g id="Group 154">
<path id="Stroke 1" d="M27.3047 296.718V303.376" stroke="#31394E" stroke-width="2.921" stroke-linecap="round"/>
<g id="Group 8">
<path id="Stroke 2" d="M12.457 300.328L17.8978 305.929" stroke="#31394E" stroke-width="2.921" stroke-linecap="round"/>
<path id="Stroke 4" d="M6 315.236H13.6932" stroke="#31394E" stroke-width="2.921" stroke-linecap="round"/>
<path id="Stroke 6" d="M11.625 330.411L17.0658 324.81" stroke="#31394E" stroke-width="2.921" stroke-linecap="round"/>
</g>
<path id="Stroke 9" d="M27.3047 332.23V325.572" stroke="#31394E" stroke-width="2.921" stroke-linecap="round"/>
<path id="Stroke 10" d="M38.599 327.794L34.1602 323.355" stroke="#31394E" stroke-width="2.921" stroke-linecap="round"/>
<path id="Stroke 11" d="M47.674 316.694H41.0156" stroke="#31394E" stroke-width="2.921" stroke-linecap="round"/>
<path id="Stroke 12" d="M42.4897 301.161L38.0508 305.6" stroke="#31394E" stroke-width="2.921" stroke-linecap="round"/>
</g>
<g id="Group 155">
<path id="Stroke 13" d="M384.797 5.97913V10.418" stroke="#31394E" stroke-width="2.921" stroke-linecap="round"/>
<path id="Stroke 15" d="M371.145 19.2949H375.583" stroke="#31394E" stroke-width="2.921" stroke-linecap="round"/>
<path id="Stroke 16" d="M384.797 32.6126V28.1737" stroke="#31394E" stroke-width="2.921" stroke-linecap="round"/>
<path id="Stroke 17" d="M395.833 19.2949H391.395" stroke="#31394E" stroke-width="2.921" stroke-linecap="round"/>
</g>
<g id="Group 156">
<path id="Stroke 18" d="M126.914 192.408V199.066" stroke="#31394E" stroke-width="2.921" stroke-linecap="round"/>
<path id="Stroke 19" d="M107.426 212.381H114.084" stroke="#31394E" stroke-width="2.921" stroke-linecap="round"/>
<path id="Stroke 20" d="M126.914 230.139V223.481" stroke="#31394E" stroke-width="2.921" stroke-linecap="round"/>
<path id="Stroke 21" d="M145.162 212.381H138.504" stroke="#31394E" stroke-width="2.921" stroke-linecap="round"/>
</g>
<g id="Group 42">
<path id="Stroke 22" d="M604.754 434.411C610.058 434.411 614.36 438.714 614.36 444.02C614.36 449.327 610.058 453.628 604.754 453.628C599.45 453.628 595.148 449.327 595.148 444.02" stroke="#374151" stroke-width="2.921" stroke-linecap="round"/>
<path id="Fill 26" fill-rule="evenodd" clip-rule="evenodd" d="M648.727 347.241C654.43 345.462 663.173 338.487 665.196 330.982C667.032 337.616 674.725 345.462 681.666 346.056C673.853 348.822 666.382 357.042 665.196 363.499C664.39 356.917 654.057 348.2 648.727 347.241Z" fill="#374151"/>
<path id="Fill 28" fill-rule="evenodd" clip-rule="evenodd" d="M63.2578 431.449C66.1105 430.56 70.48 427.073 71.4918 423.32C72.4094 426.636 76.2551 430.56 79.7258 430.857C75.8199 432.239 72.0854 436.349 71.4918 439.578C71.0886 436.287 65.9221 431.928 63.2578 431.449Z" fill="#374151"/>
<path id="Fill 30" fill-rule="evenodd" clip-rule="evenodd" d="M116.299 122.711C116.299 126.828 112.964 130.162 108.851 130.162C104.736 130.162 101.402 126.828 101.402 122.711C101.402 118.597 104.736 115.261 108.851 115.261C112.964 115.261 116.299 118.597 116.299 122.711Z" fill="#374151"/>
<path id="Fill 32" fill-rule="evenodd" clip-rule="evenodd" d="M613.591 142.718C613.591 149.596 608.016 155.171 601.142 155.171C594.265 155.171 588.691 149.596 588.691 142.718C588.691 135.841 594.265 130.266 601.142 130.266C608.016 130.266 613.591 135.841 613.591 142.718Z" fill="#374151"/>
<path id="Fill 34" fill-rule="evenodd" clip-rule="evenodd" d="M786.002 108.981C786.002 114.437 781.582 118.858 776.129 118.858C770.674 118.858 766.254 114.437 766.254 108.981C766.254 103.524 770.674 99.1029 776.129 99.1029C781.582 99.1029 786.002 103.524 786.002 108.981Z" fill="#374151"/>
<path id="Stroke 36" fill-rule="evenodd" clip-rule="evenodd" d="M255.308 570.299C255.308 573.739 252.522 576.526 249.083 576.526C245.646 576.526 242.859 573.739 242.859 570.299C242.859 566.86 245.646 564.072 249.083 564.072C252.522 564.072 255.308 566.86 255.308 570.299Z" stroke="#374151" stroke-width="2.921" stroke-linecap="round"/>
<path id="Stroke 38" fill-rule="evenodd" clip-rule="evenodd" d="M251.592 74.8508C251.592 78.967 248.257 82.3011 244.144 82.3011C240.03 82.3011 236.695 78.967 236.695 74.8508C236.695 70.7365 240.03 67.4006 244.144 67.4006C248.257 67.4006 251.592 70.7365 251.592 74.8508Z" stroke="#374151" stroke-width="2.921" stroke-linecap="round"/>
<path id="Stroke 40" fill-rule="evenodd" clip-rule="evenodd" d="M441.69 639.257C436.93 641.068 431.603 638.676 429.793 633.917C427.982 629.157 430.371 623.827 435.133 622.017C439.89 620.206 445.217 622.596 447.028 627.357C448.84 632.118 446.449 637.446 441.69 639.257Z" stroke="#374151" stroke-width="2.921" stroke-linecap="round"/>
</g>
</g>
<g id="search">
<g id="documents">
<path id="Fill 1" fill-rule="evenodd" clip-rule="evenodd" d="M439.031 463.181H257.027C244.216 463.181 233.73 452.664 233.73 439.811V180.264C233.73 167.411 244.216 156.899 257.027 156.899H439.031C451.847 156.899 462.333 167.411 462.333 180.264V439.811C462.333 452.664 451.847 463.181 439.031 463.181Z" fill="#1F2937"/>
<path id="Fill 3" fill-rule="evenodd" clip-rule="evenodd" d="M423.398 474.279H241.394C228.584 474.279 218.098 463.762 218.098 450.909V191.362C218.098 178.508 228.584 167.997 241.394 167.997H423.398C436.214 167.997 446.7 178.508 446.7 191.362V450.909C446.7 463.762 436.214 474.279 423.398 474.279Z" fill="#31394E"/>
<path id="Fill 5" fill-rule="evenodd" clip-rule="evenodd" d="M408.178 483.039H225.798C212.961 483.039 202.453 472.565 202.453 459.765V201.293C202.453 188.493 212.961 178.024 225.798 178.024H408.178C421.02 178.024 431.528 188.493 431.528 201.293V459.765C431.528 472.565 421.02 483.039 408.178 483.039Z" fill="#31394E"/>
<path id="Fill 8" fill-rule="evenodd" clip-rule="evenodd" d="M408.178 483.039H225.798C212.961 483.039 202.453 472.565 202.453 459.765V201.293C202.453 188.493 212.961 178.024 225.798 178.024H408.178C421.02 178.024 431.528 188.493 431.528 201.293V459.765C431.528 472.565 421.02 483.039 408.178 483.039Z" fill="#4B5563"/>
<g id="Group 157">
<path id="Fill 11" fill-rule="evenodd" clip-rule="evenodd" d="M382.246 256.773H247.535C243.688 256.773 240.539 253.777 240.539 250.117C240.539 246.452 243.688 243.456 247.535 243.456H382.246C386.093 243.456 389.242 246.452 389.242 250.117C389.242 253.777 386.093 256.773 382.246 256.773Z" fill="#9CA3AF"/>
<path id="Fill 13" fill-rule="evenodd" clip-rule="evenodd" d="M382.246 296.725H247.535C243.688 296.725 240.539 293.729 240.539 290.069C240.539 286.404 243.688 283.408 247.535 283.408H382.246C386.093 283.408 389.242 286.404 389.242 290.069C389.242 293.729 386.093 296.725 382.246 296.725Z" fill="#9CA3AF"/>
<path id="Fill 15" fill-rule="evenodd" clip-rule="evenodd" d="M382.246 336.672H247.535C243.688 336.672 240.539 333.676 240.539 330.016C240.539 326.356 243.688 323.355 247.535 323.355H382.246C386.093 323.355 389.242 326.356 389.242 330.016C389.242 333.676 386.093 336.672 382.246 336.672Z" fill="#9CA3AF"/>
<path id="Fill 17" fill-rule="evenodd" clip-rule="evenodd" d="M382.246 376.62H247.535C243.688 376.62 240.539 373.624 240.539 369.964C240.539 366.299 243.688 363.304 247.535 363.304H382.246C386.093 363.304 389.242 366.299 389.242 369.964C389.242 373.624 386.093 376.62 382.246 376.62Z" fill="#9CA3AF"/>
<path id="Fill 19" fill-rule="evenodd" clip-rule="evenodd" d="M317.852 416.57H247.565C243.702 416.57 240.539 413.574 240.539 409.914C240.539 406.249 243.702 403.253 247.565 403.253H317.852C321.715 403.253 324.878 406.249 324.878 409.914C324.878 413.574 321.715 416.57 317.852 416.57Z" fill="#9CA3AF"/>
</g>
</g>
<g id="search_2">
<path id="Fill 21" fill-rule="evenodd" clip-rule="evenodd" d="M459.435 364.943C432.498 391.875 390.797 394.914 360.522 374.12C356.653 371.415 352.971 368.377 349.536 364.943C347.768 363.181 346.102 361.363 344.532 359.448C341.392 355.625 338.641 351.548 336.387 347.335C332.416 340.219 329.716 332.669 328.242 324.864C323.486 300.389 330.598 274.044 349.536 255.114C368.52 236.128 394.87 229.063 419.349 233.773C427.15 235.292 434.707 237.991 441.824 241.916C446.043 244.22 450.065 246.97 453.894 250.11C455.803 251.675 457.622 253.346 459.384 255.114C462.824 258.547 465.908 262.224 468.563 266.098C489.366 296.362 486.321 338.062 459.435 364.943Z" fill="white" fill-opacity="0.1"/>
<path id="Fill 23" fill-rule="evenodd" clip-rule="evenodd" d="M451.333 359.639C423.309 387.669 377.894 387.663 349.865 359.639C321.872 331.647 321.872 286.226 349.901 258.202C377.894 230.209 423.309 230.209 451.302 258.202C479.326 286.226 479.326 331.647 451.333 359.639ZM466.059 243.804C430.088 207.833 371.797 207.833 335.826 243.804C299.86 279.77 299.829 338.097 335.795 374.068C368.533 406.796 419.846 409.747 455.937 382.876C459.462 380.248 462.857 377.301 466.096 374.068C469.329 370.83 472.275 367.435 474.898 363.91C501.77 327.813 498.792 276.537 466.059 243.804Z" fill="#D1D5DB"/>
<path id="Fill 25" fill-rule="evenodd" clip-rule="evenodd" d="M607.753 509.658L606.243 511.168C596.252 521.164 579.891 521.164 569.895 511.168L477.645 418.918L515.502 381.06L607.753 473.311C617.749 483.307 617.749 499.662 607.753 509.658Z" fill="#D1D5DB"/>
<path id="Fill 27" fill-rule="evenodd" clip-rule="evenodd" d="M477.176 361.086L504.436 388.347L485.083 407.694L457.828 380.434C461.425 377.752 464.884 374.746 468.194 371.447C471.493 368.147 474.499 364.683 477.176 361.086Z" fill="#D1D5DB"/>
<path id="Fill 29" fill-rule="evenodd" clip-rule="evenodd" d="M605.998 472.176L568.382 509.788L561.609 503.01L599.221 465.399L605.998 472.176Z" fill="#D1D5DB"/>
<path id="Fill 31" fill-rule="evenodd" clip-rule="evenodd" d="M517.58 382.364L478.933 421.011L473.191 415.27L511.838 376.622L517.58 382.364Z" fill="#D1D5DB"/>
<path id="Fill 33" fill-rule="evenodd" clip-rule="evenodd" d="M433.219 248.558L338.441 343.331C334.872 336.934 332.445 330.146 331.125 323.13L413.017 241.237C420.029 242.608 426.822 245.029 433.219 248.558Z" fill="#F3F4F6" fill-opacity="0.4"/>
<path id="Fill 35" fill-rule="evenodd" clip-rule="evenodd" d="M464.388 271.086L361.923 367.746C358.254 365.33 354.761 362.612 351.504 359.539C349.827 357.957 348.242 356.335 346.758 354.622L450.471 256.774C452.287 258.179 454.012 259.675 455.683 261.256C458.94 264.329 461.871 267.619 464.388 271.086Z" fill="#F3F4F6" fill-opacity="0.4"/>
</g>
</g>
</g>
</svg>
